<?xml version="1.0" encoding="utf-8"?>
<!-- Generator: Adobe Illustrator 23.1.0, SVG Export Plug-In . SVG Version: 6.00 Build 0)  -->
<svg version="1.1" id="Calque_1" xmlns="http://www.w3.org/2000/svg" xmlns:xlink="http://www.w3.org/1999/xlink" x="0px" y="0px"
	 viewBox="0 0 300 300" style="enable-background:new 0 0 300 300;" xml:space="preserve">
<style type="text/css">
	.st0{fill:#4BB9EA;}
	.st1{fill:#020202;}
	.st2{display:none;}
	.st3{display:inline;fill:#333333;}
	.st4{display:inline;}
	.st5{fill:#333333;}
	.st6{fill:#374A54;}
</style>
<g>
	<g>
		<g>
			<g>
				<path class="st0" d="M222.4,190C222.4,189.9,222.4,189.9,222.4,190c19.6-18.8,31.5-45.4,31.5-74.6C253.9,58,207.4,11.5,150,11.5
					S46.1,58,46.1,115.4S92.6,219.3,150,219.3c1.1,0,2.3,0,3.4-0.1l81.7,0.2C226.3,213.5,218.3,202.7,222.4,190z"/>
				<g>
					<g>
						<path class="st1" d="M129.9,111c0,5.9-4.8,10.6-10.6,10.6c-5.9,0-10.6-4.8-10.6-10.6c0-5.9,4.8-10.6,10.6-10.6
							C125.1,100.3,129.9,105.1,129.9,111z"/>
						<path class="st1" d="M191.4,111c0,5.9-4.8,10.6-10.6,10.6c-5.9,0-10.6-4.8-10.6-10.6c0-5.9,4.8-10.6,10.6-10.6
							C186.6,100.3,191.4,105.1,191.4,111z"/>
					</g>
					<path class="st1" d="M149.4,161.8c-6.4,0-12.6-0.9-16.6-3c-3-1.6-4.2-5.2-2.7-8.1c1.6-3,5.2-4.2,8.1-2.7
						c4.3,2.2,18.5,2.1,23.5-0.1c3-1.4,6.6,0,8,3c1.4,3,0,6.6-3,8C162.8,160.8,156.2,161.8,149.4,161.8z"/>
				</g>
			</g>
			<g class="st2">
				<path class="st3" d="M183.6,238.5v7.6h-12.2v32.5h-9.1v-32.5h-12.2v-7.6H183.6z"/>
				<g class="st4">
					<path class="st5" d="M73.2,238.5h9.1V271h18.5v7.6H73.2V238.5z"/>
					<path class="st5" d="M105.8,249.6h9.1v29.2h-9.1V249.6z"/>
					<path class="st5" d="M120.5,249.6h9.1v4.2l0.1,0.1c1-1.6,2.2-3,3.8-3.8c1.6-0.9,3.3-1.4,5.3-1.4c10.2,0,12.9,6.6,12.9,10v20.1
						h-9.1V261c0-2.2-0.6-3.9-1.5-5c-0.9-1-2.3-1.6-4.2-1.6c-2.1,0-3.8,0.7-5.2,2.2c-1.4,1.5-1.8,4.1-1.8,6.2v15.9h-9.5V249.6
						L120.5,249.6z"/>
				</g>
				<path class="st3" d="M220.5,273.7c-4.2,4.1-9.2,6-15.3,6c-6,0-11.2-2-15.3-6c-4.2-4.1-6.3-9-6.3-15s2.1-11.1,6.3-15
					c4.2-3.9,9.2-6,15.3-6c6,0,11.2,2,15.3,6c4.2,4.1,6.3,9,6.3,15C226.8,264.6,224.7,269.7,220.5,273.7z M217.5,258.7
					c0-3.7-1.2-6.8-3.6-9.4c-2.3-2.6-5.3-3.9-8.7-3.9s-6.4,1.4-8.7,3.9c-2.3,2.6-3.6,5.7-3.6,9.4s1.2,6.8,3.6,9.4
					c2.3,2.6,5.3,3.8,8.7,3.8s6.4-1.2,8.7-3.8C216.4,265.4,217.5,262.3,217.5,258.7z"/>
				<path class="st3" d="M115.3,241.2c0,2.7-2.2,4.9-4.9,4.9c-2.7,0-4.9-2.2-4.9-4.9c0-2.7,2.2-4.9,4.9-4.9
					C113.2,236.3,115.3,238.5,115.3,241.2z"/>
			</g>
		</g>
	</g>
	<g>
		<path class="st6" d="M72.6,287.1v-42.2h9v34.6H96v7.6H72.6z"/>
		<path class="st6" d="M100.5,247.3c0-1.4,0.5-2.5,1.4-3.3c0.9-0.9,2.1-1.4,3.3-1.4c1.4,0,2.5,0.5,3.4,1.4c1,0.9,1.5,2.1,1.5,3.4
			s-0.5,2.5-1.5,3.4c-1,1-2.1,1.4-3.4,1.4c-1.4,0-2.5-0.5-3.3-1.5C101,249.7,100.5,248.6,100.5,247.3z M101.2,287.1v-28.3h8.2v28.3
			H101.2z"/>
		<path class="st6" d="M117.9,287.1v-28.3h8v4.4c1.5-1.8,3.1-3.2,4.8-4.1c1.7-0.9,3.6-1.4,5.7-1.4c2.2,0,4.1,0.4,5.5,1.1
			c1.5,0.7,2.7,1.8,3.6,3.4c0.4,0.7,0.7,1.7,0.9,2.7c0.1,1,0.2,2.6,0.2,4.7v0.9v16.5h-8.2v-14c0-3.4-0.4-5.8-1.2-6.9
			c-0.9-1.1-2.2-1.7-4.2-1.7c-1.1,0-2.2,0.2-3.1,0.7c-0.9,0.5-1.7,1.1-2.3,2c-0.5,0.6-0.9,1.5-1.1,2.3c-0.2,0.9-0.4,2.2-0.4,3.9v1.1
			V287h-8.1V287.1z"/>
		<path class="st6" d="M170.8,252.7v34.6h-9.1v-34.6h-10.3V245H181v7.6H170.8z"/>
		<path class="st6" d="M229.3,266.2c0,3.1-0.6,5.9-1.7,8.6c-1.1,2.7-2.7,5-4.8,7.1c-2.2,2.1-4.7,3.7-7.4,4.8
			c-2.7,1.1-5.5,1.7-8.5,1.7c-2.6,0-5-0.5-7.6-1.4c-2.6-0.9-4.7-2.1-6.8-3.8c-2.7-2.1-4.7-4.7-6.2-7.6c-1.5-3-2.1-6.2-2.1-9.5
			c0-3.1,0.6-5.9,1.7-8.5c1.1-2.6,2.7-5,4.9-7.1c2.1-2.1,4.6-3.7,7.4-4.8s5.7-1.7,8.6-1.7c3,0,5.8,0.6,8.6,1.7s5.3,2.7,7.4,4.8
			c2.1,2.1,3.8,4.4,4.9,7.1C228.9,260.4,229.3,263.1,229.3,266.2z M206.8,280.3c3.8,0,7-1.4,9.5-4.1s3.7-6,3.7-10.1
			c0-4.1-1.2-7.4-3.8-10.1c-2.6-2.7-5.7-4.1-9.5-4.1c-3.8,0-7,1.4-9.5,4.1c-2.5,2.7-3.8,6-3.8,10.1c0,4.1,1.2,7.5,3.7,10.1
			C199.5,278.8,202.9,280.3,206.8,280.3z"/>
	</g>
</g>
</svg>
