<?xml version="1.0" encoding="utf-8"?>
<!-- Generator: Adobe Illustrator 23.1.0, SVG Export Plug-In . SVG Version: 6.00 Build 0)  -->
<svg version="1.1" id="Calque_1" xmlns="http://www.w3.org/2000/svg" xmlns:xlink="http://www.w3.org/1999/xlink" x="0px" y="0px"
	 viewBox="0 0 300 300" style="enable-background:new 0 0 300 300;" xml:space="preserve">
<style type="text/css">
	.st0{fill:#46BAEB;}
	.st1{fill:#010101;}
	.st2{fill:#333333;}
	.st3{fill:#C62D4D;}
	.st4{fill:#FFFFFF;}
	.st5{fill:#C52D4E;}
</style>
<g>
	<path class="st0" d="M214.9,173.2C214.9,173.1,214.9,173.1,214.9,173.2c17.5-16.9,28.3-40.7,28.3-66.9c0-51.5-41.7-93.2-93.2-93.2
		s-93.2,41.7-93.2,93.2s41.7,93.2,93.2,93.2c1,0,2.1,0,3.1-0.1l73.3,0.2C218.5,194.3,211.3,184.6,214.9,173.2z"/>
	<g>
		<g>
			<path class="st1" d="M132,102.4c0,5.3-4.3,9.5-9.5,9.5c-5.3,0-9.5-4.3-9.5-9.5c0-5.3,4.3-9.5,9.5-9.5
				C127.7,92.8,132,97.1,132,102.4z"/>
			<path class="st1" d="M187.1,102.4c0,5.3-4.3,9.5-9.5,9.5c-5.3,0-9.5-4.3-9.5-9.5c0-5.3,4.3-9.5,9.5-9.5
				C182.8,92.8,187.1,97.1,187.1,102.4z"/>
		</g>
		<path class="st1" d="M149.5,148c-5.7,0-11.3-0.8-14.9-2.7c-2.7-1.4-3.7-4.6-2.4-7.3c1.4-2.7,4.6-3.7,7.3-2.4
			c3.9,2,16.6,1.9,21.1-0.1c2.7-1.2,6,0,7.2,2.7s0,6-2.7,7.2C161.5,147.1,155.5,148,149.5,148z"/>
	</g>
</g>
<g>
	<path class="st2" d="M180.1,216.7v6.9h-10.9v29.2H161v-29.2h-10.9v-6.9H180.1z"/>
	<g>
		<path class="st2" d="M81.1,216.7h8.2v29.2h16.5v6.9H81.1V216.7z"/>
		<path class="st2" d="M110.4,226.7h8.2v26.2h-8.2V226.7z"/>
		<path class="st2" d="M123.5,226.7h8.2v3.8l0.1,0.1c0.9-1.4,2-2.6,3.4-3.4c1.4-0.8,3-1.2,4.7-1.2c9.2,0,11.6,6,11.6,8.9v18h-8.1
			V237c0-2-0.5-3.5-1.3-4.5c-0.8-0.9-2.1-1.4-3.8-1.4c-1.9,0-3.4,0.7-4.6,2c-1.2,1.3-1.7,3.6-1.7,5.5v14.2h-8.5L123.5,226.7
			L123.5,226.7z"/>
	</g>
	<path class="st2" d="M213.3,248.3c-3.7,3.6-8.3,5.4-13.7,5.4s-10-1.8-13.7-5.4c-3.7-3.6-5.6-8.1-5.6-13.5s1.9-9.9,5.6-13.5
		c3.7-3.6,8.3-5.4,13.7-5.4s10,1.8,13.7,5.4c3.7,3.6,5.6,8.1,5.6,13.5C218.9,240.2,217,244.7,213.3,248.3z M210.5,234.8
		c0-3.3-1.1-6.1-3.2-8.4c-2.1-2.3-4.7-3.5-7.8-3.5s-5.7,1.2-7.8,3.5s-3.2,5.1-3.2,8.4c0,3.3,1.1,6.1,3.2,8.4
		c2.1,2.3,4.7,3.4,7.8,3.4s5.7-1.1,7.8-3.4C209.5,240.8,210.5,238.1,210.5,234.8z"/>
	<path class="st2" d="M118.9,219.2c0,2.4-2,4.4-4.4,4.4s-4.4-2-4.4-4.4s2-4.4,4.4-4.4C117,214.8,118.9,216.8,118.9,219.2z"/>
</g>
<g>
	<g>
		<g>
			<path id="fond-contourage" class="st3" d="M207.6,268c-0.6-0.6-1.5-0.9-2.4-0.9H144l0,0h-26.7c-1.9,0-3.5,1.4-3.5,3.2v13
				c0,1.8,1.6,3.3,3.5,3.3h26.1h0.6l0,0h61.2c1.9,0,3.4-1.5,3.4-3.2v-13C208.6,269.4,208.3,268.6,207.6,268z"/>
			<path id="Fond-blanc_2_" class="st4" d="M205.2,267.6h-61.8h-9.5h-16.6c-1.6,0-2.8,1.2-2.8,2.6v13c0,1.4,1.3,2.7,2.8,2.7h16.6
				h9.5h61.8c1.6,0,2.8-1.2,2.8-2.6v-13C208,268.8,206.7,267.6,205.2,267.6z"/>
			<path id="Fond-rouge_1_" class="st3" d="M143.1,285.8h62.1c1.5,0,2.8-1.2,2.8-2.6v-13c0-1.5-1.2-2.6-2.8-2.6h-62.1L143.1,285.8
				L143.1,285.8z"/>
			<path id="A_1_" class="st4" d="M200,270.8L200,270.8l-2.8-0.1l-4.8,11.5h3.2l0.8-2.3h4.3l0.9,2.3h3.3L200,270.8z M199.8,277.5
				h-2.6l1.3-3.6L199.8,277.5z"/>
			<path id="R" class="st4" d="M191.4,274.2c0-2.4-1.5-3.5-4.4-3.5h-4.4v11.5h2.7v-4.6h1l2.4,4.6h3.2l-2.9-4.8
				C190.5,277.1,191.4,275.9,191.4,274.2z M185.3,272.9h1.4c0.7,0,1.9,0.2,1.9,1.4c0,1.2-1.1,1.3-2,1.3h-1.3V272.9z"/>
			<path id="O" class="st4" d="M175.1,270.3c-3.6,0-6.4,2.9-6.4,6.4c0,2.8,1.8,5.3,4.4,6.1l0.9-2.7c-1.4-0.5-2.5-1.8-2.5-3.4
				c0-2,1.6-3.6,3.6-3.6s3.6,1.6,3.6,3.6c0,1.6-1.1,3-2.5,3.5l0.9,2.7c2.6-0.8,4.5-3.3,4.5-6.1C181.5,273.1,178.6,270.3,175.1,270.3
				z"/>
			<path id="G" class="st4" d="M162.9,277.8h2.3v1.8c-0.6,0.3-1.3,0.6-2.4,0.6c-2.1,0-3.5-1.5-3.5-3.6s1.4-3.6,3.5-3.6
				c1.2,0,2,0.3,2.7,1.1l0.1,0.1l1.9-2.1l-0.1-0.1c-1.1-1-2.6-1.5-4.6-1.5c-3.7,0-6.3,2.5-6.3,6.1s2.5,6.1,6.2,6.1
				c1.8,0,3.5-0.4,4.8-1.1l0,0v-6.1h-4.7L162.9,277.8L162.9,277.8z"/>
			<path id="A_2_" class="st4" d="M152.4,270.7h-2.8l-4.8,11.5h3.2l0.8-2.3h4.3l0.9,2.3h3.3L152.4,270.7L152.4,270.7z M152.2,277.5
				h-2.6l1.3-3.6L152.2,277.5z"/>
			<polygon id="N" class="st5" points="138.7,270.6 138.7,278.2 134.2,270.7 134.1,270.6 130.5,270.6 130.5,282.2 133.4,282.2 
				133.4,274.5 138.2,282.2 141.6,282.2 141.6,270.6 			"/>
			<rect id="I" x="126.4" y="270.6" class="st5" width="3" height="11.6"/>
			<polygon id="L" class="st5" points="120.8,270.6 117.8,270.6 117.8,282.2 125.2,282.2 125.2,279.4 120.8,279.4 			"/>
		</g>
	</g>
	<g>
		<path class="st5" d="M91.4,270.7h3.4c1.6,0,2.7,0.2,3.4,0.7c0.7,0.5,1.1,1.2,1.1,2.2c0,0.7-0.2,1.2-0.5,1.7
			c-0.3,0.4-0.8,0.7-1.5,0.8v0.1c0.8,0.2,1.4,0.5,1.8,0.9s0.6,1.1,0.6,1.8c0,1-0.4,1.8-1.1,2.4c-0.7,0.6-1.7,0.9-3,0.9h-4.1V270.7z
			 M93.3,275.5h1.8c0.8,0,1.4-0.1,1.7-0.4c0.4-0.2,0.5-0.7,0.5-1.3c0-0.5-0.2-0.9-0.6-1.2c-0.4-0.2-1-0.4-1.9-0.4h-1.6V275.5z
			 M93.3,277v3.6h2c0.8,0,1.4-0.2,1.8-0.5c0.4-0.3,0.6-0.8,0.6-1.4c0-0.6-0.2-1-0.6-1.3c-0.4-0.3-1-0.4-1.9-0.4H93.3z"/>
		<path class="st5" d="M100.5,273.5h2l1.8,4.9c0.3,0.7,0.4,1.4,0.5,2h0.1c0-0.3,0.1-0.6,0.3-1s0.8-2.4,2-5.8h2l-3.7,9.8
			c-0.7,1.8-1.8,2.7-3.4,2.7c-0.4,0-0.8,0-1.2-0.1v-1.5c0.3,0.1,0.6,0.1,0.9,0.1c0.9,0,1.5-0.5,1.9-1.5l0.3-0.8L100.5,273.5z"/>
	</g>
</g>
</svg>
