<?xml version="1.0" encoding="utf-8"?>
<!-- Generator: Adobe Illustrator 23.1.0, SVG Export Plug-In . SVG Version: 6.00 Build 0)  -->
<svg version="1.1" id="Calque_1" xmlns="http://www.w3.org/2000/svg" xmlns:xlink="http://www.w3.org/1999/xlink" x="0px" y="0px"
	 viewBox="0 0 600 200" style="enable-background:new 0 0 600 200;" xml:space="preserve">
<style type="text/css">
	.st0{fill:#C62E4E;}
	.st1{fill:#FFFFFF;}
</style>
<g>
	<g>
		<g>
			<path id="fond-contourage" class="st0" d="M576.2,57.7c-2.9-2.9-7.2-4.3-11.5-4.3H271.2l0,0h-128c-9.1,0-16.8,6.7-16.8,15.3V131
				c0,8.6,7.7,15.8,16.8,15.8h125.1h2.9l0,0h293.5c9.1,0,16.3-7.2,16.3-15.3V69.2C581,64.4,579.6,60.5,576.2,57.7z"/>
			<path id="Fond-blanc_2_" class="st1" d="M564.7,55.7H268.4h-45.6h-79.6c-7.7,0-13.4,5.8-13.4,12.5v62.3c0,6.7,6.2,12.9,13.4,12.9
				h79.6h45.6h296.3c7.7,0,13.4-5.8,13.4-12.5V68.7C578.1,61.5,571.9,55.7,564.7,55.7z"/>
			<path id="Fond-rouge_1_" class="st0" d="M266.9,145h298.6c7.2,0,13.5-5.9,13.5-12.9V67.9c0-7.4-5.8-12.9-13.5-12.9H266.9V145
				L266.9,145z"/>
			<path id="A_1_" class="st1" d="M539.8,71.1L539.8,71.1l-13.4-0.5l-23,55.1h15.3l3.8-11h20.6l4.3,11h15.8L539.8,71.1z
				 M538.8,103.2h-12.5l6.2-17.3L538.8,103.2z"/>
			<path id="R" class="st1" d="M498.5,87.4c0-11.5-7.2-16.8-21.1-16.8h-21.1v55.1h12.9v-22.1h4.8l11.5,22.1h15.3l-13.9-23
				C494.2,101.3,498.5,95.5,498.5,87.4z M469.3,81.2h6.7c3.4,0,9.1,1,9.1,6.7c0,5.8-5.3,6.2-9.6,6.2h-6.2L469.3,81.2L469.3,81.2z"/>
			<path id="O" class="st1" d="M420.4,68.7c-17.3,0-30.7,13.9-30.7,30.7c0,13.4,8.6,25.4,21.1,29.2l4.3-12.9
				c-6.7-2.4-12-8.6-12-16.3c0-9.6,7.7-17.3,17.3-17.3s17.3,7.7,17.3,17.3c0,7.7-5.3,14.4-12,16.8l4.3,12.9
				c12.5-3.8,21.6-15.8,21.6-29.2C451.1,82.1,437.1,68.7,420.4,68.7z"/>
			<path id="G" class="st1" d="M361.9,104.6h11v8.6c-2.9,1.4-6.2,2.9-11.5,2.9c-10.1,0-16.8-7.2-16.8-17.3s6.7-17.3,16.8-17.3
				c5.8,0,9.6,1.4,12.9,5.3l0.5,0.5l9.1-10.1l-0.5-0.5c-5.3-4.8-12.5-7.2-22.1-7.2c-17.7,0-30.2,12-30.2,29.2s12,29.2,29.7,29.2
				c8.6,0,16.8-1.9,23-5.3l0,0V93.6h-22.5L361.9,104.6L361.9,104.6z"/>
			<path id="A_2_" class="st1" d="M311.5,70.6h-13.4l-23,55.1h15.3l3.8-11h20.6l4.3,11H335L311.5,70.6L311.5,70.6z M310.6,103.2
				h-12.5l6.2-17.3L310.6,103.2z"/>
			<polygon id="N" class="st0" points="245.8,70.1 245.8,106.6 224.3,70.6 223.8,70.1 206.5,70.1 206.5,125.7 220.4,125.7 
				220.4,88.8 243.4,125.7 259.7,125.7 259.7,70.1 			"/>
			<rect id="I" x="186.9" y="70.1" class="st0" width="14.4" height="55.6"/>
			<polygon id="L" class="st0" points="160,70.1 145.6,70.1 145.6,125.7 181.1,125.7 181.1,112.3 160,112.3 			"/>
		</g>
	</g>
	<g>
		<path class="st0" d="M19,70.6h16.3c7.7,0,12.9,1,16.3,3.4c3.4,2.4,5.3,5.8,5.3,10.5c0,3.4-1,5.8-2.4,8.2c-1.4,1.9-3.8,3.4-7.2,3.8
			V97c3.8,1,6.7,2.4,8.6,4.3c1.9,1.9,2.9,5.3,2.9,8.6c0,4.8-1.9,8.6-5.3,11.5c-3.4,2.9-8.2,4.3-14.4,4.3H19.5V70.6H19z M28.1,93.6
			h8.6c3.8,0,6.7-0.5,8.2-1.9c1.9-1,2.4-3.4,2.4-6.2c0-2.4-1-4.3-2.9-5.8c-1.9-1-4.8-1.9-9.1-1.9h-7.7v15.8H28.1z M28.1,100.8v17.3
			h9.6c3.8,0,6.7-1,8.6-2.4c1.9-1.4,2.9-3.8,2.9-6.7s-1-4.8-2.9-6.2s-4.8-1.9-9.1-1.9L28.1,100.8L28.1,100.8z"/>
		<path class="st0" d="M62.7,84h9.6l8.6,23.5c1.4,3.4,1.9,6.7,2.4,9.6h0.5c0-1.4,0.5-2.9,1.4-4.8c1-1.9,3.8-11.5,9.6-27.8h9.6
			l-17.7,47c-3.4,8.6-8.6,12.9-16.3,12.9c-1.9,0-3.8,0-5.8-0.5v-7.2c1.4,0.5,2.9,0.5,4.3,0.5c4.3,0,7.2-2.4,9.1-7.2l1.4-3.8L62.7,84
			z"/>
	</g>
</g>
</svg>
